<svg xmlns="http://www.w3.org/2000/svg" xmlns:xlink="http://www.w3.org/1999/xlink" width="15" height="15" viewBox="0 0 15 15">
  <defs>
    <path id="google-icon-a" d="M14.8255814,6.13636364 L7.6744186,6.13636364 L7.6744186,9.03409091 L11.7906977,9.03409091 C11.4069767,10.875 9.80232558,11.9318182 7.6744186,11.9318182 C5.1627907,11.9318182 3.13953488,9.95454545 3.13953488,7.5 C3.13953488,5.04545455 5.1627907,3.06818182 7.6744186,3.06818182 C8.75581395,3.06818182 9.73255814,3.44318182 10.5,4.05681818 L12.7325581,1.875 C11.372093,0.715909091 9.62790698,0 7.6744186,0 C3.41860465,0 0,3.34090909 0,7.5 C0,11.6590909 3.41860465,15 7.6744186,15 C11.5116279,15 15,12.2727273 15,7.5 C15,7.05681818 14.9302326,6.57954545 14.8255814,6.13636364 Z"/>
    <path id="google-icon-c" d="M14.8255814,6.13636364 L7.6744186,6.13636364 L7.6744186,9.03409091 L11.7906977,9.03409091 C11.4069767,10.875 9.80232558,11.9318182 7.6744186,11.9318182 C5.1627907,11.9318182 3.13953488,9.95454545 3.13953488,7.5 C3.13953488,5.04545455 5.1627907,3.06818182 7.6744186,3.06818182 C8.75581395,3.06818182 9.73255814,3.44318182 10.5,4.05681818 L12.7325581,1.875 C11.372093,0.715909091 9.62790698,0 7.6744186,0 C3.41860465,0 0,3.34090909 0,7.5 C0,11.6590909 3.41860465,15 7.6744186,15 C11.5116279,15 15,12.2727273 15,7.5 C15,7.05681818 14.9302326,6.57954545 14.8255814,6.13636364 Z"/>
    <path id="google-icon-e" d="M14.8255814,6.13636364 L7.6744186,6.13636364 L7.6744186,9.03409091 L11.7906977,9.03409091 C11.4069767,10.875 9.80232558,11.9318182 7.6744186,11.9318182 C5.1627907,11.9318182 3.13953488,9.95454545 3.13953488,7.5 C3.13953488,5.04545455 5.1627907,3.06818182 7.6744186,3.06818182 C8.75581395,3.06818182 9.73255814,3.44318182 10.5,4.05681818 L12.7325581,1.875 C11.372093,0.715909091 9.62790698,0 7.6744186,0 C3.41860465,0 0,3.34090909 0,7.5 C0,11.6590909 3.41860465,15 7.6744186,15 C11.5116279,15 15,12.2727273 15,7.5 C15,7.05681818 14.9302326,6.57954545 14.8255814,6.13636364 Z"/>
    <path id="google-icon-g" d="M14.8255814,6.13636364 L7.6744186,6.13636364 L7.6744186,9.03409091 L11.7906977,9.03409091 C11.4069767,10.875 9.80232558,11.9318182 7.6744186,11.9318182 C5.1627907,11.9318182 3.13953488,9.95454545 3.13953488,7.5 C3.13953488,5.04545455 5.1627907,3.06818182 7.6744186,3.06818182 C8.75581395,3.06818182 9.73255814,3.44318182 10.5,4.05681818 L12.7325581,1.875 C11.372093,0.715909091 9.62790698,0 7.6744186,0 C3.41860465,0 0,3.34090909 0,7.5 C0,11.6590909 3.41860465,15 7.6744186,15 C11.5116279,15 15,12.2727273 15,7.5 C15,7.05681818 14.9302326,6.57954545 14.8255814,6.13636364 Z"/>
  </defs>
  <g id="Page---Login" fill="none" fill-rule="evenodd" transform="translate(-165 -322)">
    <rect width="1440" height="900" fill="#FFF"/>
    <g id="left-col" transform="translate(145 96)">
      <g id="form" transform="translate(0 209)">
        <g id="social-logins">
          <g id="Button:-Google">
            <g id="google-icon" transform="translate(20 17)">
              <g id="Clipped">
                <mask id="google-icon-b" fill="#fff">
                  <use xlink:href="#google-icon-a"/>
                </mask>
                <polygon id="Shape" fill="#FBBC05" fill-rule="nonzero" points="-.698 11.932 -.698 3.068 5.233 7.5" mask="url(#google-icon-b)"/>
              </g>
              <mask id="google-icon-d" fill="#fff">
                <use xlink:href="#google-icon-c"/>
              </mask>
              <polygon fill="#EA4335" fill-rule="nonzero" points="-.698 3.068 5.233 7.5 7.674 5.42 16.047 4.091 16.047 -.682 -.698 -.682" mask="url(#google-icon-d)"/>
              <g>
                <mask id="google-icon-f" fill="#fff">
                  <use xlink:href="#google-icon-e"/>
                </mask>
                <polygon fill="#34A853" fill-rule="nonzero" points="-.698 11.932 9.767 4.091 12.523 4.432 16.047 -.682 16.047 15.682 -.698 15.682" mask="url(#google-icon-f)"/>
              </g>
              <g>
                <mask id="google-icon-h" fill="#fff">
                  <use xlink:href="#google-icon-g"/>
                </mask>
                <polygon fill="#4285F4" fill-rule="nonzero" points="16.047 15.682 5.233 7.5 3.837 6.477 16.047 3.068" mask="url(#google-icon-h)"/>
              </g>
            </g>
          </g>
        </g>
      </g>
    </g>
  </g>
</svg>
