<svg xmlns="http://www.w3.org/2000/svg" width="180" height="49" viewBox="0 0 180 49">
  <g fill="none" fill-rule="evenodd">
    <rect width="48.571" height="48.611" fill="#5457FF" rx="3.6"/>
    <path fill="#FFF" d="M28.941 12.868C35 12.868 40 17.812 40 24.119v11.624H16.682c-6.057 0-10.968-5.13-10.968-11.437 0-6.307 4.91-11.438 10.968-11.438h12.26zm5.746 17.506c1.655-1.57 2.676-3.808 2.676-6.186 0-4.802-4.169-8.63-9.31-8.63H17.661c-5.141 0-9.31 3.945-9.31 8.748 0 4.803 4.169 8.746 9.31 8.746h10.392c2.597 0 4.946-1.077 6.634-2.678zm-9.22-8.341c-.211 0-.412-.042-.597-.115l-2.965 2.253c.012.081.02.164.02.25 0 .042-.004.084-.007.125l2.917 2.16a1.63 1.63 0 0 1 .631-.128c.926 0 1.677.772 1.677 1.723 0 .952-.75 1.724-1.677 1.724-.926 0-1.676-.772-1.676-1.724 0-.054.003-.108.007-.162l-2.885-2.137c-.204.09-.428.14-.664.14-.926 0-1.677-.77-1.677-1.722s.751-1.723 1.677-1.723c.192 0 .376.035.547.096l3.007-2.285a1.778 1.778 0 0 1-.012-.198c0-.952.75-1.723 1.676-1.723.926 0 1.677.771 1.677 1.723 0 .951-.75 1.723-1.677 1.723z"/>
    <path fill="#2A354D" d="M67.616 28.081c.117.847.347 1.48.69 1.898.628.762 1.704 1.143 3.227 1.143.913 0 1.653-.1 2.223-.301 1.08-.385 1.62-1.102 1.62-2.149 0-.611-.269-1.085-.804-1.42-.536-.327-1.377-.616-2.524-.867l-1.959-.44c-1.925-.435-3.256-.909-3.992-1.42-1.248-.854-1.871-2.19-1.871-4.008 0-1.659.602-3.037 1.808-4.135 1.205-1.097 2.975-1.646 5.31-1.646 1.951 0 3.615.518 4.992 1.552 1.377 1.035 2.099 2.536 2.166 4.505h-3.717c-.067-1.114-.552-1.906-1.456-2.375-.603-.31-1.352-.465-2.248-.465-.996 0-1.791.201-2.385.603-.595.403-.892.964-.892 1.684 0 .662.293 1.156.879 1.483.377.218 1.18.473 2.41.767l3.19.766c1.398.335 2.452.783 3.164 1.345 1.105.87 1.657 2.132 1.657 3.782 0 1.692-.646 3.098-1.94 4.216-1.293 1.118-3.12 1.678-5.48 1.678-2.41 0-4.307-.551-5.688-1.653-1.381-1.102-2.072-2.616-2.072-4.543h3.692zM84.818 33.8h-3.579V15.277h3.579v18.522zm6.448-10.33c-.457.52-.743 1.224-.86 2.112h5.562c-.059-.947-.345-1.665-.86-2.155-.515-.49-1.153-.735-1.915-.735-.829 0-1.471.26-1.927.779zm5.003-3.09c.913.427 1.666 1.101 2.26 2.023.536.812.883 1.755 1.042 2.827.092.628.13 1.533.113 2.714h-9.366c.05 1.374.481 2.338 1.293 2.89.494.344 1.088.516 1.783.516.736 0 1.335-.21 1.795-.629.251-.226.473-.54.666-.942h3.654c-.093.812-.515 1.638-1.269 2.475-1.171 1.332-2.812 1.998-4.921 1.998-1.742 0-3.278-.56-4.608-1.683-1.331-1.123-1.997-2.95-1.997-5.48 0-2.37.6-4.188 1.802-5.453 1.201-1.265 2.76-1.897 4.677-1.897 1.138 0 2.164.213 3.076.64zm8.783 3.09c-.456.52-.742 1.224-.86 2.112h5.563c-.059-.947-.346-1.665-.86-2.155-.515-.49-1.154-.735-1.915-.735-.829 0-1.471.26-1.928.779zm5.004-3.09c.912.427 1.666 1.101 2.26 2.023.536.812.883 1.755 1.042 2.827.092.628.13 1.533.113 2.714h-9.367c.05 1.374.482 2.338 1.294 2.89.494.344 1.088.516 1.783.516.736 0 1.335-.21 1.795-.629.251-.226.473-.54.666-.942h3.653c-.092.812-.514 1.638-1.268 2.475-1.172 1.332-2.812 1.998-4.922 1.998-1.74 0-3.277-.56-4.608-1.683-1.33-1.123-1.996-2.95-1.996-5.48 0-2.37.6-4.188 1.802-5.453 1.2-1.265 2.76-1.897 4.677-1.897 1.138 0 2.164.213 3.076.64zm5.274-5.04h3.515v9.978l4.458-5.152h4.432l-4.784 5.24 4.972 8.394h-4.319l-3.277-5.856-1.482 1.546v4.31h-3.515v-18.46zm24.88 5.548c.9.742 1.35 1.971 1.35 3.689v9.223h-3.667v-8.331c0-.72-.096-1.274-.289-1.659-.351-.704-1.02-1.056-2.009-1.056-1.213 0-2.046.516-2.498 1.546-.235.545-.352 1.24-.352 2.086v7.414h-3.566V20.127h3.453v1.998c.46-.704.896-1.21 1.306-1.52.737-.553 1.67-.83 2.8-.83 1.415 0 2.572.371 3.472 1.112zm12.688 9.268c.56-.746.841-1.805.841-3.18 0-1.373-.28-2.43-.841-3.172-.561-.742-1.365-1.112-2.41-1.112-1.047 0-1.853.37-2.418 1.112-.565.741-.847 1.799-.847 3.173s.282 2.433.847 3.179c.565.745 1.37 1.118 2.417 1.118 1.046 0 1.85-.373 2.41-1.118zm2.863 1.979c-1.156 1.428-2.91 2.143-5.261 2.143-2.352 0-4.106-.715-5.261-2.143-1.155-1.428-1.733-3.148-1.733-5.158 0-1.977.578-3.69 1.733-5.14 1.155-1.45 2.909-2.174 5.26-2.174 2.353 0 4.106.725 5.262 2.174 1.155 1.45 1.732 3.163 1.732 5.14 0 2.01-.577 3.73-1.732 5.158zm2.373-9.355v-2.551h1.909v-3.82h3.54v3.82h2.223v2.55h-2.223v7.239c0 .56.071.91.214 1.049.142.138.577.207 1.306.207a10.033 10.033 0 0 0 .703-.025v2.677l-1.695.063c-1.691.058-2.846-.235-3.466-.88-.402-.41-.602-1.043-.602-1.898V22.78h-1.909zm12.927.69c-.456.52-.743 1.224-.86 2.112h5.562c-.059-.947-.345-1.665-.86-2.155-.515-.49-1.153-.735-1.915-.735-.829 0-1.471.26-1.927.779zm5.003-3.09c.913.427 1.666 1.101 2.26 2.023.536.812.883 1.755 1.042 2.827.093.628.13 1.533.113 2.714h-9.366c.05 1.374.481 2.338 1.293 2.89.494.344 1.088.516 1.783.516.737 0 1.335-.21 1.795-.629.252-.226.473-.54.666-.942h3.654c-.092.812-.515 1.638-1.268 2.475-1.172 1.332-2.813 1.998-4.922 1.998-1.741 0-3.277-.56-4.608-1.683-1.331-1.123-1.997-2.95-1.997-5.48 0-2.37.6-4.188 1.802-5.453 1.201-1.265 2.76-1.897 4.677-1.897 1.139 0 2.164.213 3.076.64z"/>
  </g>
</svg>